<?xml version="1.0" encoding="iso-8859-1"?>
<!-- Generator: Adobe Illustrator 19.0.0, SVG Export Plug-In . SVG Version: 6.00 Build 0)  -->
<svg version="1.1" id="Layer_1" xmlns="http://www.w3.org/2000/svg" xmlns:xlink="http://www.w3.org/1999/xlink" x="0px" y="0px"
	 viewBox="0 0 473.931 473.931" style="enable-background:new 0 0 473.931 473.931;" xml:space="preserve">
<circle style="fill:#B1C635;" cx="236.966" cy="236.966" r="236.966"/>
<circle style="fill:#9BD7D9;" cx="236.779" cy="236.966" r="168.566"/>
<g>
	<path style="fill:#5C9340;" d="M325.2,162.767c0,0-36.344,7.513-49.358,0.543c0,0-8.681-11.27-33.1-1.609
		c0,0-42.854,25.755-43.412,51.509c0,0-11.932,50.989,33.1,57.96c0,0,47.195-15.558,53.167,2.683c0,0,1.639,22.544,5.972,27.371
		c0,0,7.053,10.368,6.511,16.628c0,0-4.89,20.931,1.631,37.032c0,0,4.333,13.949,3.794,18.245c0,0,41.238-11.809,54.256-50.439
		c0,0,7.592-26.84,8.135-33.814c0,0,10.851-31.124,13.571-40.785c0,0,9.762-28.976-6.518-25.212c0,0-11.394-10.743-19.536-18.787
		C345.275,196.038,329.548,165.449,325.2,162.767z"/>
	<path style="fill:#5C9340;" d="M361.551,203.02l-45.575-41.863c0,0,9.762-8.587,6.511-13.41
		c-3.252-4.834-10.305,1.609-16.277,1.609c-5.964,0-14.106,4.827-17.358,0.535c-3.259-4.296-5.429-3.214-8.681-0.535
		c-3.259,2.683-9.223,6.975-9.762,4.288c-0.546-2.679-10.312-1.605-10.851-4.288c-0.539-2.683,1.616-10.2-3.267-8.587
		c-4.868,1.605-11.929,6.978-13.018,9.661c-1.081,2.683-4.868,10.728-8.673,10.728c-3.802,0-13.564,2.148-15.188-1.07
		c-1.631-3.225-4.883-13.957-1.631-17.175c3.252-3.222,19.177,0.18,18.439-3.757c-0.73-3.933-2.608-12.569-0.213-13.8
		c2.398-1.224,8.894-15.177,13.242-16.789c4.333-1.609,15.734,4.292,17.366,0.539c0,0,0.543-11.266-1.631-12.879
		c-2.178-1.609-3.817-6.436-7.585-5.904c-3.817,0.539-5.444,4.296-2.728,5.904c2.728,1.616,4.883,8.045,3.259,8.045
		c-1.643,0-16.284,1.074-16.823-2.675c-0.546-3.757,1.631-12.883,6.496-16.105c4.905-3.214,15.203-2.687,18.462-1.078
		c3.259,1.616,7.053-1.609,8.142-4.284c1.081-2.683-15.42-11.663-20.31-11.663c0,0,128.571,9.59,150.643,141.042
		c0,0-13.695-45.133-22.918-47.812c0,0-4.883,3.222-8.142,2.683c-3.252-0.543-19.528-10.739-20.61-8.049
		c-1.089,2.687,7.592,11.801,16.823,12.872c9.208,1.074,9.762,2.148,10.297,6.978c0.543,4.823,2.17,12.344,1.096,17.171
		C379.998,198.182,373.484,212.682,361.551,203.02z"/>
	<path style="fill:#5C9340;" d="M227.001,107.497c0,0-4.333,2.69-6.511,6.436c-2.17,3.764-2.17,6.982-2.17,6.982
		s2.746,1.601,5.534,1.616c2.784,0.007,10.211-2.687,10.211-6.443C234.062,112.328,227.001,107.497,227.001,107.497z"/>
	<path style="fill:#5C9340;" d="M220.491,75.299c0,0-13.018,15.558-19.521,17.171c-6.518,1.616-17.366,6.971-20.075,9.126
		c-2.713,2.144-11.94-1.609-6.511-5.901c5.429-4.299,20.067-13.961,16.815-15.031c-3.252-1.07-17.904,9.122-23.869,13.418
		c-5.972,4.288-10.859,10.72-13.556,15.023c-2.728,4.292-2.178,15.566-8.142,17.71c-5.979,2.148-32.018,12.872-40.692,20.393
		c-8.681,7.51-18.028,13.055-21.837,20.568c-3.794,7.51,1.923-11.992,5.276-19.191c0,0,23.064-41.092,75.696-66.854
		C164.076,81.735,204.214,71.546,220.491,75.299z"/>
	<path style="fill:#5C9340;" d="M68.59,264.198c0,0-5.437-28.984,0.535-31.667c5.972-2.683,7.768-3.252,13.029,2.148
		c5.238,5.392,12.468,14.488,15.173,19.315c2.731,4.831,12.497,10.728,12.497,14.488c0,3.76-2.178,12.879,0,17.171
		c2.163,4.296,5.414,4.838,10.312,6.978c4.883,2.14,14.099,5.366,19.521,10.204c5.422,4.831,13.029,10.728,11.394,17.167
		c-1.631,6.447-4.883,16.101-3.794,19.858c1.074,3.757,4.883,10.193,0.546,12.875c-4.348,2.687-7.6,2.151-7.061,6.971
		c0.554,4.831,5.987,19.843,7.614,22.525C148.357,382.232,80.706,353.443,68.59,264.198z"/>
	<path style="fill:#5C9340;" d="M75.999,204.562c1.081-3.749,3.794-22.529,0.528-22.529c-6.365,23.48-6.133,23.18-8.681,40.781"/>
</g>
<g>
</g>
<g>
</g>
<g>
</g>
<g>
</g>
<g>
</g>
<g>
</g>
<g>
</g>
<g>
</g>
<g>
</g>
<g>
</g>
<g>
</g>
<g>
</g>
<g>
</g>
<g>
</g>
<g>
</g>
</svg>
